<mxfile host="app.diagrams.net" modified="2023-11-25T11:13:15.317Z" agent="Mozilla/5.0 (Windows NT 10.0; Win64; x64) AppleWebKit/537.36 (KHTML, like Gecko) Chrome/119.0.0.0 Safari/537.36 Edg/119.0.0.0" version="22.1.4" etag="0Ma24bUlkgUr5RN8nxOg" type="github">
  <diagram name="Page-1" id="mTpbWvaC1HWahLN_zk6U">
    <mxGraphModel>
      <root>
        <mxCell id="0" />
        <mxCell id="1" parent="0" />
      </root>
    </mxGraphModel>
  </diagram>
</mxfile>
